<svg
  width="46"
  height="47"
  viewBox="0 0 46 47"
  fill="none"
  xmlns="http://www.w3.org/2000/svg"
>
  <path
    d="M19.4703 33.8755C33.8196 29.2364 44.4295 16.2822 45.6194 0.693271C45.6282 0.577599 45.5366 0.478516 45.4206 0.478516H0.21076C0.100303 0.478516 0.0107602 0.568059 0.0107602 0.678516V34.0636C0.0107033 34.0636 0.0108171 34.0636 0.0107602 34.0636L0.0105924 46.142C0.0105908 46.2525 0.100134 46.342 0.210592 46.342H45.6743C45.7847 46.342 45.8743 46.2525 45.8743 46.142V20.3564C45.8743 20.179 45.6601 20.0891 45.5325 20.2123C38.4681 27.0369 29.4846 31.8875 19.4703 33.8755Z"
    fill="url(#paint0_linear_466_811)"
  />
  <defs>
    <linearGradient
      id="paint0_linear_466_811"
      x1="22.9424"
      y1="0.478516"
      x2="22.9424"
      y2="46.342"
      gradientUnits="userSpaceOnUse"
    >
      <stop stop-color="#292524" />
      <stop offset="1" stop-color="#1C1917" />
    </linearGradient>
  </defs>
</svg>
