<svg width="91" height="91" viewBox="0 0 91 91" fill="none" xmlns="http://www.w3.org/2000/svg">
<path fill-rule="evenodd" clip-rule="evenodd" d="M35.0459 0.94635L22.9566 0.94635C10.367 0.94635 0.161163 11.1522 0.161163 23.7418V47.4294C6.61541 43.7271 14.4331 40.8328 23.1041 38.4734C23.8879 38.2602 24.6612 38.0353 25.4239 37.7994C26.8419 22.5344 30.4529 10.2498 35.0459 0.94635ZM0.161163 54.124V68.1929C0.161163 80.7825 10.367 90.9883 22.9566 90.9883H34.3025C35.732 89.0228 37.8241 87.3443 40.1132 85.8614C44.7294 82.8712 51.3032 79.9856 58.2187 76.9501L58.2201 76.9495C60.1422 76.1058 62.0908 75.2505 64.031 74.3781C65.0426 73.9233 66.0552 73.4626 67.0656 72.995C67.7676 70.5225 68.2144 68.0649 68.3501 65.6981C68.7211 59.2275 66.7873 53.6637 61.6026 49.9422C58.0055 47.3602 51.0626 47.6276 44.4872 52.6621C38.1284 57.5308 32.6134 66.6517 32.6134 80.3887C32.6134 81.8823 31.46 83.1225 29.9703 83.2306C28.4806 83.3388 27.1602 82.2782 26.9444 80.8003C24.9452 67.105 24.4204 54.7936 24.9867 43.8662C24.8581 43.9019 24.7294 43.9373 24.6003 43.9724C14.6975 46.6669 6.39845 49.9662 0.161163 54.124ZM57.6066 90.9883H42.6915C42.8597 90.8748 43.033 90.7601 43.2115 90.6445C47.4026 87.9296 53.372 85.3071 60.1948 82.3096L60.2001 82.3072C61.4932 81.7391 62.8169 81.1576 64.165 80.5594C63.295 82.3675 62.315 84.1406 61.2481 85.8471C60.1034 87.6781 58.8775 89.4027 57.6066 90.9883ZM64.6929 90.9883H67.4077C79.9973 90.9883 90.2031 80.7825 90.2031 68.1929V66.4221C84.64 70.5713 78.1629 74.0434 71.7494 77.0936C70.3315 81.2152 68.3588 85.2237 66.0803 88.8682C65.6316 89.5859 65.1686 90.2933 64.6929 90.9883ZM90.2031 59.0973V23.7418C90.2031 12.1919 81.6134 2.6483 70.4736 1.15076C69.4347 5.81595 67.3623 10.7498 64.3401 15.5617C57.738 26.0735 46.4571 36.2402 30.8056 41.9937C30.4059 47.9868 30.3492 54.4583 30.7154 61.4118C33.2753 55.715 36.9245 51.2751 41.0227 48.1373C48.6913 42.2657 58.4985 40.6991 64.9257 45.3125C72.0934 50.4574 74.491 58.1504 74.0396 66.0242C73.9674 67.2838 73.8229 68.5536 73.613 69.8264C79.3723 66.8899 84.8157 63.6417 89.2985 59.8759C89.6051 59.6183 89.9068 59.3588 90.2031 59.0973ZM41.4701 0.94635L64.6619 0.94635C63.7172 4.59869 62.0106 8.55591 59.5142 12.5307C53.9203 21.4372 44.4893 30.2243 31.3728 35.6551C33.0511 20.8095 36.9004 9.26155 41.4701 0.94635Z" fill="#0A0A0A"/>
</svg>
